<svg width="40" height="41" viewBox="0 0 40 41" fill="none" xmlns="http://www.w3.org/2000/svg">
<g clip-path="url(#clip0_12_119)">
<path d="M-65.6375 -65.6362H105.641V105.642H-65.6375V-65.6362Z" fill="white"/>
<path d="M15.0961 20.003C15.0961 17.2933 17.2921 15.0961 20.0017 15.0961C22.7114 15.0961 24.9085 17.2933 24.9085 20.003C24.9085 22.7126 22.7114 24.9098 20.0017 24.9098C17.2921 24.9098 15.0961 22.7126 15.0961 20.003ZM12.4435 20.003C12.4435 24.1774 15.8273 27.5611 20.0017 27.5611C24.1761 27.5611 27.5599 24.1774 27.5599 20.003C27.5599 15.8285 24.1761 12.4448 20.0017 12.4448C15.8273 12.4448 12.4435 15.8285 12.4435 20.003ZM26.0927 12.1451C26.0927 13.1201 26.8834 13.9119 27.8595 13.9119C28.8345 13.9119 29.6263 13.1201 29.6263 12.1451C29.6263 11.1702 28.8357 10.3796 27.8595 10.3796C26.8834 10.3796 26.0927 11.1702 26.0927 12.1451ZM14.0546 31.984C12.6195 31.9187 11.8396 31.6797 11.3212 31.4776C10.634 31.21 10.1441 30.8914 9.6281 30.3766C9.11328 29.8618 8.79345 29.3719 8.52713 28.6847C8.32501 28.1663 8.08603 27.3864 8.02063 25.9513C7.9493 24.3997 7.93503 23.9336 7.93503 20.003C7.93503 16.0723 7.95048 15.6074 8.02063 14.0546C8.08603 12.6195 8.32619 11.8408 8.52713 11.3212C8.79464 10.634 9.11328 10.1441 9.6281 9.62813C10.1429 9.11331 10.6328 8.79349 11.3212 8.52716C11.8396 8.32504 12.6195 8.08606 14.0546 8.02066C15.6062 7.94933 16.0722 7.93506 20.0017 7.93506C23.9324 7.93506 24.3973 7.95052 25.9501 8.02066C27.3851 8.08606 28.1639 8.32623 28.6835 8.52716C29.3707 8.79349 29.8605 9.11331 30.3765 9.62813C30.8914 10.1429 31.21 10.634 31.4775 11.3212C31.6796 11.8396 31.9186 12.6195 31.984 14.0546C32.0553 15.6074 32.0696 16.0723 32.0696 20.003C32.0696 23.9324 32.0553 24.3985 31.984 25.9513C31.9186 27.3864 31.6784 28.1663 31.4775 28.6847C31.21 29.3719 30.8914 29.8618 30.3765 30.3766C29.8617 30.8914 29.3707 31.21 28.6835 31.4776C28.1651 31.6797 27.3851 31.9187 25.9501 31.984C24.3985 32.0554 23.9324 32.0697 20.0017 32.0697C16.0722 32.0697 15.6062 32.0554 14.0546 31.984ZM13.9333 5.37286C12.3663 5.4442 11.2962 5.69269 10.3605 6.05651C9.39269 6.43222 8.57231 6.93634 7.75312 7.75434C6.93512 8.57234 6.431 9.39272 6.05529 10.3617C5.69147 11.2974 5.44298 12.3675 5.37164 13.9345C5.29912 15.5039 5.28247 16.0057 5.28247 20.003C5.28247 24.0002 5.29912 24.502 5.37164 26.0714C5.44298 27.6384 5.69147 28.7085 6.05529 29.6442C6.431 30.612 6.93393 31.4336 7.75312 32.2516C8.57112 33.0696 9.3915 33.5725 10.3605 33.9494C11.2974 34.3132 12.3663 34.5617 13.9333 34.633C15.5039 34.7044 16.0045 34.7222 20.0017 34.7222C24.0002 34.7222 24.5007 34.7056 26.0702 34.633C27.6372 34.5617 28.7073 34.3132 29.643 33.9494C30.6108 33.5725 31.4311 33.0696 32.2503 32.2516C33.0683 31.4336 33.5713 30.612 33.9482 29.6442C34.312 28.7085 34.5617 27.6384 34.6318 26.0714C34.7031 24.5008 34.7198 24.0002 34.7198 20.003C34.7198 16.0057 34.7031 15.5039 34.6318 13.9345C34.5605 12.3675 34.312 11.2974 33.9482 10.3617C33.5713 9.39391 33.0683 8.57353 32.2503 7.75434C31.4323 6.93634 30.6108 6.43222 29.6441 6.05651C28.7073 5.69269 27.6372 5.44301 26.0713 5.37286C24.5019 5.30153 24.0002 5.28369 20.0029 5.28369C16.0045 5.28369 15.5039 5.30034 13.9333 5.37286Z" fill="#68A678"/>
</g>
<defs>
<clipPath id="clip0_12_119">
<rect width="40" height="40.0048" rx="6" fill="white"/>
</clipPath>
</defs>
</svg>
