<svg width="30" height="30" viewBox="0 0 30 30" fill="none" xmlns="http://www.w3.org/2000/svg">
<g clip-path="url(#clip0_35_34)">
<path d="M25.2228 7.4173C25.3054 7.44483 25.3941 7.44881 25.4788 7.4288C25.5635 7.40879 25.641 7.36558 25.7026 7.30401L28.9252 4.08135C28.9868 4.0198 29.03 3.94233 29.05 3.85762C29.07 3.77291 29.066 3.68431 29.0385 3.60173C29.011 3.51915 28.961 3.44587 28.8942 3.39008C28.8274 3.3343 28.7463 3.29822 28.6602 3.28588L26.9573 3.04255L26.7141 1.33982C26.7018 1.25366 26.6657 1.17263 26.6099 1.10582C26.5541 1.03901 26.4808 0.989047 26.3983 0.961534C26.3157 0.934021 26.2271 0.930043 26.1424 0.950046C26.0577 0.970049 25.9802 1.01324 25.9186 1.07479L22.696 4.29744C22.6344 4.359 22.5912 4.4365 22.5713 4.52123C22.5513 4.60597 22.5553 4.69459 22.5829 4.77716L23.0772 6.25996L22.1996 7.13755C19.7657 4.87735 16.542 3.66268 13.2218 3.7548C9.90157 3.84692 6.75014 5.23846 4.44533 7.63013C2.14051 10.0218 0.86644 13.2225 0.897149 16.5439C0.927858 19.8652 2.26089 23.0418 4.60954 25.3905C6.95818 27.7391 10.1348 29.0721 13.4561 29.1028C16.7775 29.1336 19.9782 27.8595 22.3699 25.5547C24.7615 23.2499 26.1531 20.0984 26.2452 16.7782C26.3373 13.458 25.1226 10.2343 22.8624 7.80041L23.7399 6.92301L25.2228 7.4173ZM25.3126 16.4062C25.3165 19.1021 24.3923 21.7172 22.6952 23.8118C20.9981 25.9065 18.6316 27.353 15.9935 27.9083C13.3554 28.4635 10.6066 28.0936 8.20908 26.8608C5.81161 25.6279 3.91167 23.6072 2.82863 21.1385C1.7456 18.6697 1.54551 15.9033 2.262 13.3044C2.97849 10.7054 4.56787 8.43241 6.76298 6.86737C8.95808 5.30233 11.6251 4.54071 14.3156 4.71055C17.0061 4.88038 19.5562 5.97131 21.5371 7.79994L19.5413 9.79583C17.8092 8.23648 15.5366 7.41513 13.2077 7.50679C10.8789 7.59844 8.67787 8.59585 7.07364 10.2865C5.4694 11.9772 4.58874 14.2274 4.6193 16.5579C4.64986 18.8883 5.58922 21.1147 7.23723 22.7628C8.88525 24.4108 11.1117 25.3501 13.4421 25.3807C15.7726 25.4113 18.0228 24.5306 19.7135 22.9264C21.4041 21.3221 22.4016 19.1211 22.4932 16.7923C22.5849 14.4634 21.7635 12.1908 20.2042 10.4587L22.2001 8.46294C24.2026 10.6231 25.3144 13.4606 25.3126 16.4062ZM13.2624 16.7376C13.3059 16.7811 13.3576 16.8157 13.4144 16.8392C13.4713 16.8628 13.5323 16.8749 13.5938 16.8749C13.6554 16.8749 13.7163 16.8628 13.7732 16.8392C13.83 16.8157 13.8817 16.7811 13.9252 16.7376L15.8837 14.7791C16.2939 15.3556 16.4726 16.0651 16.3842 16.7671C16.2959 17.4691 15.947 18.1122 15.4068 18.5691C14.8665 19.0259 14.1744 19.2631 13.4675 19.2336C12.7606 19.2041 12.0906 18.91 11.5903 18.4097C11.09 17.9094 10.7959 17.2394 10.7664 16.5325C10.7369 15.8256 10.9741 15.1335 11.4309 14.5932C11.8878 14.053 12.5309 13.7041 13.2329 13.6158C13.9349 13.5274 14.6444 13.7061 15.2209 14.1163L13.2624 16.0748C13.2189 16.1183 13.1843 16.17 13.1607 16.2268C13.1372 16.2837 13.125 16.3446 13.125 16.4062C13.125 16.4677 13.1372 16.5287 13.1607 16.5856C13.1843 16.6424 13.2189 16.6941 13.2624 16.7376ZM15.8896 13.4476C15.1336 12.8603 14.1821 12.5831 13.2289 12.6727C12.2758 12.7622 11.3926 13.2117 10.7592 13.9295C10.1258 14.6474 9.78982 15.5797 9.8197 16.5366C9.84958 17.4935 10.2431 18.403 10.92 19.08C11.597 19.7569 12.5065 20.1504 13.4634 20.1803C14.4203 20.2102 15.3526 19.8742 16.0705 19.2408C16.7883 18.6074 17.2378 17.7242 17.3273 16.7711C17.4169 15.8179 17.1397 14.8664 16.5524 14.1104L19.5416 11.1213C20.9242 12.6763 21.6464 14.7089 21.5549 16.7876C21.4634 18.8664 20.5655 20.8277 19.0517 22.2552C17.5378 23.6828 15.5273 24.4642 13.4468 24.4337C11.3662 24.4032 9.37946 23.5632 7.90813 22.0919C6.43681 20.6205 5.59676 18.6338 5.56626 16.5532C5.53576 14.4727 6.31722 12.4622 7.74478 10.9483C9.17234 9.43452 11.1336 8.53659 13.2124 8.44512C15.2911 8.35365 17.3237 9.07584 18.8787 10.4584L15.8896 13.4476ZM25.9186 2.40046L26.0789 3.52335C26.0933 3.62372 26.1398 3.71672 26.2115 3.7884C26.2832 3.86008 26.3763 3.90657 26.4767 3.9209L27.5995 4.08135L25.2444 6.43635L23.9841 6.01612L23.5639 4.75518L25.9186 2.40046Z" fill="#1D4A2D"/>
</g>
<defs>
<clipPath id="clip0_35_34">
<rect width="30" height="30" fill="white"/>
</clipPath>
</defs>
</svg>
