<svg width="31" height="29" viewBox="0 0 31 29" fill="none" xmlns="http://www.w3.org/2000/svg">
<g clip-path="url(#clip0_13_410)">
<path d="M24.1762 2.45262C24.1532 2.39534 24.1185 2.34352 24.0742 2.30051C24.0299 2.25751 23.9771 2.22427 23.9192 2.20294C23.8613 2.18162 23.7996 2.17269 23.738 2.17673C23.6764 2.18076 23.6164 2.19768 23.5617 2.22638L13.081 7.75634C12.9858 7.80651 12.9123 7.88989 12.8745 7.99066C12.8367 8.09143 12.8372 8.20257 12.8759 8.303L13.0916 8.86726L7.0414 12.1851C6.94619 12.2371 6.87357 12.3226 6.8375 12.4249C6.80143 12.5273 6.80445 12.6394 6.84598 12.7396L7.04669 13.2229L0.621481 16.2934C0.519748 16.342 0.440568 16.4278 0.400274 16.5332C0.35998 16.6385 0.361647 16.7552 0.404931 16.8594L1.7236 20.0372C1.76674 20.1414 1.84824 20.2251 1.95127 20.2709C2.0543 20.3168 2.171 20.3214 2.2773 20.2837L8.98948 17.906L9.19018 18.3893C9.23162 18.4894 9.30849 18.5707 9.4061 18.6176C9.50371 18.6645 9.6152 18.6738 9.71923 18.6437L16.1242 16.7978L16.3161 17.2986C16.3555 17.4029 16.4332 17.4881 16.5333 17.537C16.6334 17.5859 16.7484 17.5948 16.8548 17.5618L28.2985 14.0407C28.3568 14.023 28.4107 13.9934 28.4568 13.9537C28.503 13.9141 28.5404 13.8652 28.5666 13.8103C28.5929 13.7554 28.6074 13.6957 28.6093 13.6349C28.6112 13.574 28.6004 13.5135 28.5776 13.4571L24.1762 2.45262ZM2.37677 19.3145L1.37853 16.9078L7.38472 14.0372L8.65145 17.0918L2.37677 19.3145ZM9.85128 17.6895L9.64177 17.1842L8.0194 13.2713L7.80989 12.7669L13.3874 9.70793L15.4772 15.1076L15.8073 15.9712L9.85128 17.6895ZM16.9895 16.5997L16.8108 16.1323C16.8082 16.1226 16.8099 16.1111 16.8055 16.1014L16.2615 14.6956L13.8372 8.35229L23.5406 3.23343L27.5829 13.3391L16.9895 16.5997Z" fill="#1D4A2D"/>
<path d="M25.4966 0.692039C25.4533 0.583594 25.3687 0.496794 25.2614 0.450736C25.1541 0.404677 25.0329 0.403131 24.9245 0.446439C24.816 0.489747 24.7292 0.574361 24.6832 0.681667C24.6371 0.788972 24.6356 0.91018 24.6789 1.01862L29.9606 14.2229C30.0042 14.3313 30.089 14.418 30.1964 14.464C30.3038 14.51 30.4251 14.5116 30.5336 14.4685C30.642 14.425 30.7286 14.3404 30.7747 14.2332C30.8207 14.1259 30.8223 14.0048 30.7792 13.8963L25.4966 0.692039Z" fill="#1D4A2D"/>
<path d="M15.8451 18.9016H13.2043C12.2007 18.9016 11.4437 19.6587 11.4437 20.6622V21.8198L6.2685 27.8576C6.22808 27.901 6.19684 27.9521 6.17666 28.0079C6.15648 28.0637 6.14778 28.1229 6.15107 28.1821C6.15436 28.2413 6.16959 28.2993 6.19583 28.3524C6.22207 28.4056 6.25878 28.4529 6.30377 28.4916C6.34875 28.5302 6.40108 28.5594 6.45761 28.5773C6.51414 28.5952 6.5737 28.6015 6.63273 28.5958C6.69176 28.5901 6.74902 28.5725 6.8011 28.5442C6.85317 28.5158 6.89897 28.4772 6.93576 28.4307L12.0863 22.4228H14.0846V28.1446C14.0846 28.2613 14.1309 28.3733 14.2135 28.4558C14.296 28.5384 14.408 28.5848 14.5247 28.5848C14.6414 28.5848 14.7534 28.5384 14.8359 28.4558C14.9185 28.3733 14.9648 28.2613 14.9648 28.1446V22.4228H16.9631L22.1128 28.4307C22.1502 28.4749 22.196 28.5112 22.2476 28.5375C22.2991 28.5638 22.3554 28.5797 22.4131 28.5841C22.4709 28.5885 22.5289 28.5814 22.5839 28.5633C22.6388 28.5451 22.6896 28.5162 22.7334 28.4782C22.822 28.4022 22.8767 28.2942 22.8857 28.1778C22.8946 28.0614 22.8569 27.9462 22.7809 27.8576L17.6057 21.8198V20.7282C17.6057 19.7044 16.8328 18.9016 15.8451 18.9016ZM16.7254 21.5425H12.324V20.6622C12.324 20.1437 12.6858 19.7819 13.2043 19.7819H15.8451C16.3469 19.7819 16.7254 20.1886 16.7254 20.7282V21.5425Z" fill="#1D4A2D"/>
</g>
<defs>
<clipPath id="clip0_13_410">
<rect width="30.81" height="28.1691" fill="white" transform="translate(0 0.415527)"/>
</clipPath>
</defs>
</svg>
